<svg xmlns="http://www.w3.org/2000/svg" viewBox="0 0 64 64"><defs><linearGradient id="soqbg" x1="0" y1="0" x2="0" y2="1"><stop offset="0" stop-color="#8E0024"/><stop offset="1" stop-color="#480012"/></linearGradient><linearGradient id="soqbw" x1="0" y1="0" x2="0" y2="1"><stop offset="0" stop-color="#FFFFFF"/><stop offset="1" stop-color="#F7E8ED"/></linearGradient><linearGradient id="soqsun" x1="0" y1="0" x2="1" y2="1"><stop offset="0" stop-color="#FFD9A0"/><stop offset="1" stop-color="#EDB168"/></linearGradient><clipPath id="soqclip"><rect x="13" y="26.6" width="38" height="28.4" rx="6"/></clipPath></defs><rect width="64" height="64" rx="15" fill="url(#soqbg)"/><circle cx="49.6" cy="15.4" r="6.6" fill="url(#soqsun)"/><path d="M24.4 28.8c0-9.8 15.2-9.8 15.2 0" fill="none" stroke="#FFFFFF" stroke-width="3.4" stroke-linecap="round"/><rect x="13" y="26.6" width="38" height="28.4" rx="6" fill="url(#soqbw)"/><g clip-path="url(#soqclip)"><circle cx="39.4" cy="38.2" r="7.6" fill="#F6C4D3"/><path d="M28.6 30.4 L20.2 46.6 H28.6 Z" fill="#7A0020"/><path d="M28.6 30.4 L37 46.6 H28.6 Z" fill="#A8002C"/><path d="M14.4 50.4q3.6-2.6 7.2 0t7.2 0 7.2 0 7.2 0" fill="none" stroke="#800020" stroke-width="2.3" stroke-linecap="round" opacity=".92"/><path d="M19.2 54.4q3.6-2.4 7.2 0t7.2 0 7.2 0" fill="none" stroke="#800020" stroke-width="1.8" stroke-linecap="round" opacity=".55"/></g></svg>